<svg width="29" height="29" viewBox="0 0 29 29" fill="none" xmlns="http://www.w3.org/2000/svg">
<path d="M23.618 21.6945C23.8734 21.9499 24.0168 22.2962 24.0168 22.6574C24.0168 23.0185 23.8734 23.3649 23.618 23.6203C23.3626 23.8756 23.0163 24.0191 22.6551 24.0191C22.294 24.0191 21.9476 23.8756 21.6922 23.6203L14.5 16.4258L7.3055 23.618C7.05013 23.8734 6.70377 24.0169 6.34261 24.0169C5.98146 24.0169 5.6351 23.8734 5.37972 23.618C5.12435 23.3626 4.98088 23.0163 4.98088 22.6551C4.98088 22.294 5.12435 21.9476 5.37972 21.6922L12.5742 14.5L5.38199 7.30551C5.12661 7.05013 4.98315 6.70377 4.98315 6.34262C4.98315 5.98146 5.12661 5.6351 5.38199 5.37973C5.63736 5.12435 5.98373 4.98088 6.34488 4.98088C6.70603 4.98088 7.0524 5.12435 7.30777 5.37973L14.5 12.5742L21.6945 5.37859C21.9499 5.12322 22.2962 4.97975 22.6574 4.97975C23.0185 4.97975 23.3649 5.12322 23.6203 5.37859C23.8756 5.63397 24.0191 5.98033 24.0191 6.34148C24.0191 6.70264 23.8756 7.049 23.6203 7.30438L16.4258 14.5L23.618 21.6945Z" fill="#614242"/>
</svg>
